REM MD5 7be09d948b17004fd18984eced1c9197
FILE "Euro Demo Future 93 (Europe).bin" BINARY
  TRACK 01 MODE2/2352
    INDEX 01 00:00:00
  TRACK 02 AUDIO
    INDEX 00 60:59:49
    INDEX 01 61:01:49
  TRACK 03 AUDIO
    INDEX 00 63:30:51
    INDEX 01 63:32:51
  TRACK 04 AUDIO
    INDEX 00 67:14:64
    INDEX 01 67:16:64
REM LEADOUT 70:18:21
